<svg xmlns="http://www.w3.org/2000/svg">
    <symbol id="CHECK" viewBox="0 0 24 24" fill="currentColor">
        <path d="M9.9997 15.1709L19.1921 5.97852L20.6063 7.39273L9.9997 17.9993L3.63574 11.6354L5.04996 10.2212L9.9997 15.1709Z"></path>
    </symbol>

    <symbol id="ARROW_LEFT" viewBox="0 0 24 24" fill="currentColor">
        <path d="M7.82843 10.9999H20V12.9999H7.82843L13.1924 18.3638L11.7782 19.778L4 11.9999L11.7782 4.22168L13.1924 5.63589L7.82843 10.9999Z"></path>
    </symbol>

    <symbol id="HEART" viewBox="0 0 24 24">
        <path stroke-width="2" fill="none" d="M16.5 3C19.5376 3 22 5.5 22 9C22 16 14.5 20 12 21.5C9.5 20 2 16 2 9C2 5.5 4.5 3 7.5 3C9.35997 3 11 4 12 5C13 4 14.64 3 16.5 3Z"></path>
        <path fill="currentColor" stroke="none" d="M16.5 3C19.5376 3 22 5.5 22 9C22 16 14.5 20 12 21.5C9.5 20 2 16 2 9C2 5.5 4.5 3 7.5 3C9.35997 3 11 4 12 5C13 4 14.64 3 16.5 3Z"></path>
    </symbol>

    <symbol id="PLAY" viewBox="0 0 24 24" fill="currentColor">
        <path d="M17 4C20.3137 4 23 6.68629 23 10V14C23 17.3137 20.3137 20 17 20H7C3.68629 20 1 17.3137 1 14V10C1 6.68629 3.68629 4 7 4H17ZM10 9H8V11H6V13H7.999L8 15H10L9.999 13H12V11H10V9ZM18 13H16V15H18V13ZM16 9H14V11H16V9Z"></path>
    </symbol>

    <symbol id="LEARN" viewBox="0 0 24 24" fill="currentColor">
        <path d="M12 2 0 9 12 16 22 10.1667V17.5H24V9L12 2ZM3.99902 13.4905V18.0001C5.82344 20.429 8.72812 22.0001 11.9998 22.0001 15.2714 22.0001 18.1761 20.429 20.0005 18.0001L20.0001 13.4913 12.0003 18.1579 3.99902 13.4905Z"></path>
    </symbol>
</svg>