<svg xmlns="http://www.w3.org/2000/svg">
    <symbol id="CHECK" viewBox="0 0 24 24" fill="currentColor">
        <path d="M9.9997 15.1709L19.1921 5.97852L20.6063 7.39273L9.9997 17.9993L3.63574 11.6354L5.04996 10.2212L9.9997 15.1709Z"></path>
    </symbol>

    <symbol id="ARROW_LEFT" viewBox="0 0 24 24" fill="currentColor">
        <path d="M7.82843 10.9999H20V12.9999H7.82843L13.1924 18.3638L11.7782 19.778L4 11.9999L11.7782 4.22168L13.1924 5.63589L7.82843 10.9999Z"></path>
    </symbol>

    <symbol id="HEART" viewBox="0 0 24 24">
        <path stroke-width="2" fill="none" d="M16.5 3C19.5376 3 22 5.5 22 9C22 16 14.5 20 12 21.5C9.5 20 2 16 2 9C2 5.5 4.5 3 7.5 3C9.35997 3 11 4 12 5C13 4 14.64 3 16.5 3Z"></path>
        <path fill="currentColor" stroke="none" d="M16.5 3C19.5376 3 22 5.5 22 9C22 16 14.5 20 12 21.5C9.5 20 2 16 2 9C2 5.5 4.5 3 7.5 3C9.35997 3 11 4 12 5C13 4 14.64 3 16.5 3Z"></path>
    </symbol>

    <symbol id="PLAY" viewBox="0 0 24 24" fill="currentColor">
        <path d="M17 4C20.3137 4 23 6.68629 23 10V14C23 17.3137 20.3137 20 17 20H7C3.68629 20 1 17.3137 1 14V10C1 6.68629 3.68629 4 7 4H17ZM10 9H8V11H6V13H7.999L8 15H10L9.999 13H12V11H10V9ZM18 13H16V15H18V13ZM16 9H14V11H16V9Z"></path>
    </symbol>

    <symbol id="LEARN" viewBox="0 0 24 24" fill="currentColor">
        <path d="M12 2 0 9 12 16 22 10.1667V17.5H24V9L12 2ZM3.99902 13.4905V18.0001C5.82344 20.429 8.72812 22.0001 11.9998 22.0001 15.2714 22.0001 18.1761 20.429 20.0005 18.0001L20.0001 13.4913 12.0003 18.1579 3.99902 13.4905Z"></path>
    </symbol>

    <symbol id="SETTINGS" viewBox="0 0 24 24" fill="currentColor">
        <path d="M9.95401 2.2106C11.2876 1.93144 12.6807 1.92263 14.0449 2.20785C14.2219 3.3674 14.9048 4.43892 15.9997 5.07103C17.0945 5.70313 18.364 5.75884 19.4566 5.3323C20.3858 6.37118 21.0747 7.58203 21.4997 8.87652C20.5852 9.60958 19.9997 10.736 19.9997 11.9992C19.9997 13.2632 20.5859 14.3902 21.5013 15.1232C21.29 15.7636 21.0104 16.3922 20.6599 16.9992C20.3094 17.6063 19.9049 18.1627 19.4559 18.6659C18.3634 18.2396 17.0943 18.2955 15.9997 18.9274C14.9057 19.559 14.223 20.6294 14.0453 21.7879C12.7118 22.067 11.3187 22.0758 9.95443 21.7906C9.77748 20.6311 9.09451 19.5595 7.99967 18.9274C6.90484 18.2953 5.63539 18.2396 4.54272 18.6662C3.61357 17.6273 2.92466 16.4164 2.49964 15.1219C3.41412 14.3889 3.99968 13.2624 3.99968 11.9992C3.99968 10.7353 3.41344 9.60827 2.49805 8.87524C2.70933 8.23482 2.98894 7.60629 3.33942 6.99923C3.68991 6.39217 4.09443 5.83576 4.54341 5.33257C5.63593 5.75881 6.90507 5.703 7.99967 5.07103C9.09364 4.43942 9.7764 3.3691 9.95401 2.2106ZM11.9997 14.9992C13.6565 14.9992 14.9997 13.6561 14.9997 11.9992C14.9997 10.3424 13.6565 8.99923 11.9997 8.99923C10.3428 8.99923 8.99967 10.3424 8.99967 11.9992C8.99967 13.6561 10.3428 14.9992 11.9997 14.9992Z"></path>
    </symbol>

    <symbol id="HELP" viewBox="0 0 24 24" fill="currentColor">
        <path d="M12 22C6.47715 22 2 17.5228 2 12C2 6.47715 6.47715 2 12 2C17.5228 2 22 6.47715 22 12C22 17.5228 17.5228 22 12 22ZM11 15V17H13V15H11ZM13 13.3551C14.4457 12.9248 15.5 11.5855 15.5 10C15.5 8.067 13.933 6.5 12 6.5C10.302 6.5 8.88637 7.70919 8.56731 9.31346L10.5288 9.70577C10.6656 9.01823 11.2723 8.5 12 8.5C12.8284 8.5 13.5 9.17157 13.5 10C13.5 10.8284 12.8284 11.5 12 11.5C11.4477 11.5 11 11.9477 11 12.5V14H13V13.3551Z"></path>
    </symbol>
</svg>